<?xml version="1.0" encoding="utf-8"?>
<!-- Generator: Adobe Illustrator 17.0.2, SVG Export Plug-In . SVG Version: 6.00 Build 0)  -->
<!DOCTYPE svg PUBLIC "-//W3C//DTD SVG 1.1//EN" "http://www.w3.org/Graphics/SVG/1.1/DTD/svg11.dtd">
<svg version="1.1" id="Ebene_1" xmlns="http://www.w3.org/2000/svg" xmlns:xlink="http://www.w3.org/1999/xlink" x="0px" y="0px"
	 width="500px" height="500px" viewBox="0 0 500 500" enable-background="new 0 0 500 500" xml:space="preserve">
<g id="Background">
	<g id="Frame">
	</g>
	<g id="Text">
	</g>
</g>
<path fill="#4A5963" d="M356.36,343.28c0-16.58,10.71-31.02,25.48-36.71c-19.92-32.29-76.95-92.57-81.96-106.35
	c-1.17-3.23-1.88-9.93-2.26-18.59c-2.75,1.24-5.78,1.94-8.95,1.94c-12.09,0-22.18-10.09-22.18-22.18s10.09-22.18,22.18-22.18
	c3.12,0,6.11,0.68,8.82,1.88c0.65-30.57,2.38-61.11,2.38-61.11h-65.05c0.55,1.91,0.85,3.91,0.85,5.97
	c0,12.09-10.09,22.18-22.18,22.18c-12.09,0-22.18-10.09-22.18-22.18c0-2.06,0.3-4.06,0.85-5.97H181v121.17
	c-6,25.84,12.76,46.93,12.76,46.93s57.95,78.77,100.85,111.64c23.61,18.1,54.42,22.23,74.74,12.53
	C361.41,365.04,356.36,354.66,356.36,343.28z M236.11,259.54c-12.09,0-22.18-10.09-22.18-22.18s10.09-22.18,22.18-22.18
	s22.18,10.09,22.18,22.18C258.29,249.45,248.2,259.54,236.11,259.54z"/>
<path fill="#929F88" d="M312.05,391.5c7.57,0,12.21,4.54,13.94,10.1c7.05-9.99,9.5-24.02,4.66-42.11
	c-4.6-25.13-89.14-112.15-95.51-129.68c-6.37-17.53,0-128.81,0-128.81h-73.08c2.64,8.84-2.02,20.17-13.99,20.17
	s-16.63-11.33-13.99-20.17H111v70.07c2.44-3.22,6.29-5.43,11.57-5.43c19.63,0,19.63,30.44,0,30.44c-5.28,0-9.13-2.21-11.57-5.43
	v39.4c-0.55,3.08-0.83,6.1-0.9,9.03c4.52-1.85,9.44-2.89,14.57-2.89c21.42,0,39.29,17.87,39.29,39.29c0,14.3-7.97,27.01-19.65,33.89
	c21.78,27.99,56.24,69.47,85.14,91.62c22.37,17.15,50.75,22.76,72.16,16.84C293.47,409.5,296.94,391.5,312.05,391.5z"/>
</svg>
