<?xml version="1.0" encoding="utf-8"?>
<!-- Generator: Adobe Illustrator 17.0.2, SVG Export Plug-In . SVG Version: 6.00 Build 0)  -->
<!DOCTYPE svg PUBLIC "-//W3C//DTD SVG 1.1//EN" "http://www.w3.org/Graphics/SVG/1.1/DTD/svg11.dtd">
<svg version="1.1" id="Ebene_1" xmlns="http://www.w3.org/2000/svg" xmlns:xlink="http://www.w3.org/1999/xlink" x="0px" y="0px"
	 width="500px" height="500px" viewBox="0 0 500 500" enable-background="new 0 0 500 500" xml:space="preserve">
<g id="Background">
	<g id="Frame">
	</g>
	<g id="Text">
	</g>
</g>
<path fill="#4A5963" d="M311.21,387.65c-42.9-32.87-100.15-111.64-100.15-111.64S193,254.93,199,229.08V107h117.48
	c0,0-5.91,104.42,0,120.68s84.33,97.58,88.6,120.89C420.76,407.11,354.1,420.52,311.21,387.65z"/>
<path fill="#929F88" d="M229.59,426.34c-53.58-40.15-122.81-136.36-122.81-136.36s-8.38-8-12.78-57.32s0.97-171.82,0.97-171.82
	l141.54,6.34c0,0-7.71,145.31-0.33,165.18s102.41,124.76,110.67,146.95C355.1,401.5,283.17,466.49,229.59,426.34z"/>
</svg>
