<!DOCTYPE svg  PUBLIC '-//W3C//DTD SVG 1.1//EN'  'http://www.w3.org/Graphics/SVG/1.1/DTD/svg11.dtd'>
<svg xmlns="http://www.w3.org/2000/svg" xml:space="preserve" viewBox="0 0 415 415" version="1.1" y="0px" x="0px" xmlns:xlink="http://www.w3.org/1999/xlink" enable-background="new 0 0 415 415">
<path d="m321.55 165.37l-110.73-76.66c-2.46-1.91-5.98-2.09-8.67-0.2l-108.87 76.96c-2.08 1.29-3.47 3.59-3.47 6.22v137.48c0 4.03 3.27 7.31 7.31 7.31h220.78c4.04 0 7.31-3.27 7.31-7.31v-137.48c-0.02-2.7-1.48-5.06-3.66-6.32zm-115.15-62l98.49 68.18-88.67 58.68-4.72-3.25c-2.46-1.96-6.01-2.17-8.72-0.29l-4.71 3.28-88.06-58.47 96.39-68.13zm-101.98 81.93l80.78 53.64-80.78 56.25v-109.89zm15.96 116.56l86.6-60.3 4.73 3.26c0.19 0.15 0.38 0.28 0.58 0.4l82.16 56.64h-174.07zm190.2-6.57l-81.42-56.13 81.42-53.88v110.01z" fill="#4A5963"/>
</svg>
