<?xml version="1.0" encoding="utf-8"?>
<!-- Generator: Adobe Illustrator 17.0.2, SVG Export Plug-In . SVG Version: 6.00 Build 0)  -->
<!DOCTYPE svg PUBLIC "-//W3C//DTD SVG 1.1//EN" "http://www.w3.org/Graphics/SVG/1.1/DTD/svg11.dtd">
<svg version="1.1" id="Layer_1" xmlns="http://www.w3.org/2000/svg" xmlns:xlink="http://www.w3.org/1999/xlink" x="0px" y="0px"
	 width="415px" height="415px" viewBox="0 0 415 415" enable-background="new 0 0 415 415" xml:space="preserve">
<path fill="#4A5963" d="M321.55,165.37L210.82,88.71c-2.46-1.91-5.98-2.09-8.67-0.2L93.28,165.47c-2.08,1.29-3.47,3.59-3.47,6.22
	v137.48c0,4.03,3.27,7.31,7.31,7.31h220.78c4.04,0,7.31-3.27,7.31-7.31V171.69C325.19,168.99,323.73,166.63,321.55,165.37z
	 M206.4,103.37l98.49,68.18l-88.67,58.68l-4.72-3.25c-2.46-1.96-6.01-2.17-8.72-0.29l-4.71,3.28l-88.06-58.47L206.4,103.37z
	 M104.42,185.3l80.78,53.64l-80.78,56.25C104.42,295.19,104.42,185.3,104.42,185.3z M120.38,301.86l86.6-60.3l4.73,3.26
	c0.19,0.15,0.38,0.28,0.58,0.4l82.16,56.64H120.38z M310.58,295.29l-81.42-56.13l81.42-53.88V295.29z"/>
</svg>
