<?xml version="1.0" encoding="utf-8"?>
<!-- Generator: Adobe Illustrator 17.0.2, SVG Export Plug-In . SVG Version: 6.00 Build 0)  -->
<!DOCTYPE svg PUBLIC "-//W3C//DTD SVG 1.1//EN" "http://www.w3.org/Graphics/SVG/1.1/DTD/svg11.dtd">
<svg version="1.1" id="Layer_1" xmlns="http://www.w3.org/2000/svg" xmlns:xlink="http://www.w3.org/1999/xlink" x="0px" y="0px"
	 width="415px" height="415px" viewBox="0 0 415 415" enable-background="new 0 0 415 415" xml:space="preserve">
<path fill="#4A5963" d="M340.06,125.28c-9.75,4.33-20.24,7.25-31.24,8.56c11.23-6.73,19.85-17.39,23.92-30.09
	c-10.51,6.23-22.15,10.76-34.54,13.2c-9.92-10.57-24.06-17.18-39.7-17.18c-30.04,0-54.39,24.35-54.39,54.39
	c0,4.26,0.48,8.41,1.41,12.4c-45.21-2.27-85.28-23.92-112.11-56.83c-4.68,8.03-7.36,17.38-7.36,27.34c0,18.87,9.6,35.52,24.2,45.27
	c-8.92-0.28-17.3-2.73-24.64-6.8c0,0.23,0,0.45,0,0.68c0,26.35,18.75,48.33,43.63,53.33c-4.56,1.24-9.37,1.91-14.33,1.91
	c-3.5,0-6.91-0.34-10.23-0.98c6.92,21.61,27.01,37.33,50.81,37.77c-18.61,14.59-42.07,23.29-67.55,23.29
	c-4.39,0-8.72-0.26-12.97-0.76c24.07,15.43,52.66,24.44,83.38,24.44c100.05,0,154.76-82.88,154.76-154.76c0-2.36-0.05-4.7-0.16-7.04
	C323.55,145.76,332.77,136.18,340.06,125.28z"/>
</svg>
