<!DOCTYPE svg  PUBLIC '-//W3C//DTD SVG 1.1//EN'  'http://www.w3.org/Graphics/SVG/1.1/DTD/svg11.dtd'>
<svg xmlns="http://www.w3.org/2000/svg" xml:space="preserve" viewBox="0 0 415 415" version="1.1" y="0px" x="0px" xmlns:xlink="http://www.w3.org/1999/xlink" enable-background="new 0 0 415 415">
<path d="m340.06 125.28c-9.75 4.33-20.24 7.25-31.24 8.56 11.23-6.73 19.85-17.39 23.92-30.09-10.51 6.23-22.15 10.76-34.54 13.2-9.92-10.57-24.06-17.18-39.7-17.18-30.04 0-54.39 24.35-54.39 54.39 0 4.26 0.48 8.41 1.41 12.4-45.21-2.27-85.28-23.92-112.11-56.83-4.68 8.03-7.36 17.38-7.36 27.34 0 18.87 9.6 35.52 24.2 45.27-8.92-0.28-17.3-2.73-24.64-6.8v0.68c0 26.35 18.75 48.33 43.63 53.33-4.56 1.24-9.37 1.91-14.33 1.91-3.5 0-6.91-0.34-10.23-0.98 6.92 21.61 27.01 37.33 50.81 37.77-18.61 14.59-42.07 23.29-67.55 23.29-4.39 0-8.72-0.26-12.97-0.76 24.07 15.43 52.66 24.44 83.38 24.44 100.05 0 154.76-82.88 154.76-154.76 0-2.36-0.05-4.7-0.16-7.04 10.6-7.66 19.82-17.24 27.11-28.14z" fill="#4A5963"/>
</svg>
